<?xml version="1.0" encoding="UTF-8"?>
<svg width="210px" height="50px" viewBox="0 0 210 50" version="1.1" xmlns="http://www.w3.org/2000/svg" xmlns:xlink="http://www.w3.org/1999/xlink">
    <title>Stockr Logo</title>
    <desc>Created with Sketch.</desc>
    <defs>
        <path d="M44.5131103,3.87470374 C40.8366329,3.82555731 37.750821,4.08967174 35.2556745,4.66704702 L23.0646796,0.0285419503 L26.9585491,11.3493437 L22.2542793,27.2267086 L33.6778453,39.0531576 L33.9725169,37.1736698 L37.2245226,45.578498 L44.5131103,49.4255035 L44.5131103,41.5271149 C44.5131103,16.4500089 44.5131103,3.89920518 44.5131103,3.87470374 Z" id="path-1"></path>
    </defs>
    <g id="Page-1" stroke="none" stroke-width="1" fill="none" fill-rule="evenodd">
        <g id="Group-3">
            <g id="Group-2">
                <path d="M22.2716405,3.87470374 C18.5951632,3.82555731 15.5093512,4.08967174 13.0142048,4.66704702 L0.823209906,0.0285419503 L4.71707941,11.3493437 L0.0128095841,27.2267086 L11.4363756,39.0531576 L11.7310472,37.1736698 L14.9830528,45.578498 L22.2716405,49.4255035 L22.2716405,41.5271149 L18.3629039,41.5271149 L18.9211765,43.8666029 L17.9557796,43.8666029 L10.3504734,27.8103792 L9.73811229,32.3672921 L3.73571968,26.0530696 L7.22267872,14.5963043 L10.595546,16.7838268 L6.15822659,6.08483258 L13.2645381,8.45522077 C16.310376,7.67348021 19.3127435,7.21043992 22.2716405,7.06609988 C22.2716405,7.06250952 22.2716405,3.91145591 22.2716405,3.87470374 Z" id="Path" fill="#E7E5D3"></path>
                <polygon id="Path-2" fill="#E7E5D3" points="12.9958468 28.0696041 16.6162116 27.2776464 18.4467014 36.3310886 19.0988995 25.9695419 9.89275313 22.8457003"></polygon>
                <mask id="mask-2" fill="white">
                    <use xlink:href="#path-1"></use>
                </mask>
                <use id="Mask" fill="#E7E5D3" transform="translate(33.383695, 24.727023) scale(-1, 1) translate(-33.383695, -24.727023) " xlink:href="#path-1"></use>
                <polygon id="Line" fill="#424242" fill-rule="nonzero" mask="url(#mask-2)" points="29.7044425 31.4459456 32.4607678 22.3011512 37.1375379 29.9461104 40.5530693 11.4207072 39.8223731 11.2908096 36.7582711 27.9101049 32.2278948 20.5044508 29.4457241 29.7349936 25.3754909 23.6686606 21.4801878 41.7151346 22.2066244 41.8663236 25.7333584 25.5273859"></polygon>
            </g>
            <path d="M81.7411869,30.6751592 C81.7411869,32.101918 81.4195656,33.3948987 80.7763133,34.5541401 C80.133061,35.7133816 79.250179,36.6942635 78.1276408,37.4968153 C77.0051025,38.2993671 75.6744732,38.9171953 74.1357129,39.3503185 C72.5969526,39.7834417 70.9320894,40 69.1410733,40 C68.0563735,40 66.9779962,39.8662434 65.9059091,39.5987261 C64.833822,39.3312089 63.7932825,38.9490471 62.7842593,38.4522293 C61.7752362,37.9554115 60.8229849,37.3439527 59.9274768,36.6178344 C59.0319688,35.8917161 58.2310687,35.0700683 57.5247525,34.1528662 L60.4761304,31.3630573 C60.8545141,31.8216583 61.3085677,32.3120993 61.8383048,32.8343949 C62.368042,33.3566905 62.9923657,33.8407621 63.7112947,34.2866242 C64.4302237,34.7324863 65.2374301,35.1019094 66.1329381,35.3949045 C67.0284462,35.6878996 68.0311479,35.8343949 69.1410733,35.8343949 C70.1753221,35.8343949 71.1969427,35.7324851 72.2059658,35.5286624 C73.214989,35.3248397 74.1104836,35.012741 74.8924765,34.5923567 C75.6744694,34.1719724 76.3050995,33.6369459 76.7843854,32.9872611 C77.2636714,32.3375764 77.5033108,31.5668834 77.5033108,30.6751592 C77.5033108,29.5796124 77.2573651,28.7388564 76.7654664,28.1528662 C76.2735676,27.5668761 75.6366313,27.1401287 74.8546383,26.8726115 C74.0726454,26.6050942 73.1771508,26.4458601 72.1681276,26.3949045 C71.1591045,26.3439488 70.1500965,26.3184713 69.1410733,26.3184713 C65.7356202,26.3184713 63.1500372,25.7070125 61.3842467,24.4840764 C59.6184562,23.2611404 58.7355742,21.4140251 58.7355742,18.9426752 C58.7355742,17.7961726 58.9941325,16.6815341 59.5112569,15.5987261 C60.0283812,14.5159182 60.7472994,13.5605137 61.668033,12.7324841 C62.5887667,11.9044545 63.6860629,11.2420407 64.9599546,10.7452229 C66.2338463,10.2484052 67.6275386,10 69.1410733,10 C71.2852475,10 73.2906509,10.3312069 75.1573438,10.9936306 C77.0240366,11.6560543 78.8024132,12.8280171 80.492527,14.5095541 L77.9195308,17.566879 C77.1627634,16.955411 76.4501515,16.4331232 75.7816737,16 C75.1131959,15.5668768 74.4384218,15.2165618 73.7573311,14.9490446 C73.0762405,14.6815273 72.3636286,14.4904464 71.619474,14.3757962 C70.8753195,14.2611459 70.0491942,14.2038217 69.1410733,14.2038217 C68.3338548,14.2038217 67.5770988,14.3312089 66.8707826,14.5859873 C66.1644664,14.8407656 65.546449,15.1847112 65.0167119,15.6178344 C64.4869747,16.0509576 64.0707589,16.5541373 63.768052,17.1273885 C63.465345,17.7006398 63.3139938,18.2929906 63.3139938,18.9044586 C63.3139938,19.3375818 63.402282,19.7515904 63.5788611,20.1464968 C63.7554401,20.5414032 64.0707551,20.8917182 64.5248155,21.1974522 C64.978876,21.5031862 65.5905871,21.745222 66.3599672,21.9235669 C67.1293474,22.1019117 68.1194365,22.1910828 69.3302642,22.1910828 C71.8023709,22.1910828 73.8393059,22.3821637 75.4411301,22.7643312 C77.0429543,23.1464987 78.3105207,23.7006333 79.2438671,24.4267516 C80.1772135,25.1528699 80.8267624,26.0445807 81.1925333,27.1019108 C81.5583042,28.159241 81.7411869,29.3503118 81.7411869,30.6751592 Z M96.157533,23.4904459 L96.157533,39.3503185 L92.2602005,39.3503185 L92.2602005,23.4904459 L85.1466229,23.4904459 L85.1466229,19.5541401 L103.535978,19.5541401 L103.535978,23.4904459 L96.157533,23.4904459 Z M126.76862,29.2993631 C126.76862,28.2038162 126.554205,27.2547811 126.12537,26.4522293 C125.696536,25.6496775 125.128969,24.9872638 124.422652,24.4649682 C123.716336,23.9426725 122.915436,23.5605108 122.019928,23.3184713 C121.12442,23.0764319 120.210007,22.955414 119.27666,22.955414 C118.318088,22.955414 117.391062,23.0828013 116.495554,23.3375796 C115.600046,23.592358 114.805452,23.9872585 114.111749,24.522293 C113.418045,25.0573275 112.856785,25.73248 112.42795,26.5477707 C111.999115,27.3630614 111.784701,28.3312046 111.784701,29.4522293 C111.784701,30.573254 111.999115,31.5413972 112.42795,32.3566879 C112.856785,33.1719786 113.424352,33.8471311 114.130668,34.3821656 C114.836984,34.9172001 115.637884,35.3121006 116.533392,35.566879 C117.4289,35.8216573 118.355926,35.9490446 119.314498,35.9490446 C120.247845,35.9490446 121.155952,35.8025492 122.038847,35.5095541 C122.921742,35.216559 123.716336,34.7898117 124.422652,34.2292994 C125.128969,33.668787 125.696536,32.9745264 126.12537,32.1464968 C126.554205,31.3184672 126.76862,30.3694321 126.76862,29.2993631 Z M130.855143,29.2611465 C130.855143,30.9426836 130.527215,32.4458532 129.87135,33.7707006 C129.215485,35.095548 128.351522,36.2165559 127.279435,37.133758 C126.207348,38.05096 124.971313,38.7515899 123.571293,39.2356688 C122.171274,39.7197476 120.727131,39.9617834 119.238822,39.9617834 C117.750513,39.9617834 116.312676,39.726117 114.92527,39.2547771 C113.537863,38.7834371 112.308134,38.0955459 111.236047,37.1910828 C110.16396,36.2866197 109.306303,35.1783505 108.663051,33.866242 C108.019799,32.5541336 107.698177,31.0573332 107.698177,29.3757962 C107.698177,27.6942591 108.026105,26.2038282 108.68197,24.9044586 C109.337835,23.605089 110.208105,22.5095586 111.292804,21.6178344 C112.377504,20.7261102 113.613539,20.0509577 115.000946,19.5923567 C116.388353,19.1337557 117.813577,18.9044586 119.27666,18.9044586 C120.739744,18.9044586 122.171274,19.1210169 123.571293,19.5541401 C124.971313,19.9872633 126.207348,20.6369383 127.279435,21.5031847 C128.351522,22.3694311 129.215485,23.4522228 129.87135,24.7515924 C130.527215,26.0509619 130.855143,27.5541316 130.855143,29.2611465 Z M155.752664,37.133758 C154.667965,38.0764378 153.43193,38.7834371 152.044523,39.2547771 C150.657116,39.726117 149.206667,39.9617834 147.693132,39.9617834 C146.204823,39.9617834 144.766987,39.726117 143.37958,39.2547771 C141.992173,38.7834371 140.762445,38.0955459 139.690358,37.1910828 C138.61827,36.2866197 137.760614,35.1783505 137.117361,33.866242 C136.474109,32.5541336 136.152488,31.0573332 136.152488,29.3757962 C136.152488,27.6942591 136.480415,26.2038282 137.136281,24.9044586 C137.792146,23.605089 138.662415,22.5095586 139.747115,21.6178344 C140.831815,20.7261102 142.06785,20.0509577 143.455256,19.5923567 C144.842663,19.1337557 146.267887,18.9044586 147.730971,18.9044586 C149.168829,18.9044586 150.568827,19.1146476 151.931008,19.5350318 C153.29319,19.9554161 154.516612,20.5732443 155.601312,21.388535 L152.990477,24.4458599 C152.258936,23.9363032 151.43281,23.547772 150.512077,23.2802548 C149.591343,23.0127375 148.664317,22.8789809 147.730971,22.8789809 C146.772399,22.8789809 145.851679,23.0127375 144.968784,23.2802548 C144.085888,23.547772 143.291294,23.9490419 142.584978,24.4840764 C141.878662,25.019111 141.317401,25.7006328 140.901179,26.5286624 C140.484957,27.356692 140.276849,28.3312046 140.276849,29.4522293 C140.276849,30.573254 140.491264,31.5413972 140.920098,32.3566879 C141.348933,33.1719786 141.9165,33.8471311 142.622816,34.3821656 C143.329133,34.9172001 144.130033,35.31847 145.025541,35.5859873 C145.921049,35.8535045 146.835462,35.9872611 147.768809,35.9872611 C148.828283,35.9872611 149.85621,35.8025496 150.85262,35.433121 C151.849031,35.0636924 152.725606,34.5350353 153.482374,33.8471338 L155.752664,37.133758 Z M166.687898,39.3503185 L162.563537,39.3503185 L162.563537,19.5541401 L166.687898,19.5541401 L166.687898,32.2420382 L175.731223,19.5541401 L180.725862,19.5541401 L174.255534,28.4585987 L177.131235,33.3503185 C177.711424,34.1656092 178.278991,34.6624195 178.833953,34.8407643 C179.388916,35.0191092 179.918645,35.1082803 180.423157,35.1082803 L181.785331,35.1082803 L181.785331,39.3503185 L180.082613,39.3503185 C179.578102,39.3503185 179.105129,39.3184717 178.663682,39.2547771 C178.222234,39.1910825 177.780793,39.0573259 177.339345,38.8535032 C176.897898,38.6496805 176.437538,38.3375817 175.958252,37.9171975 C175.478966,37.4968132 174.949237,36.9299399 174.369048,36.2165605 L171.6447,31.7070064 L166.687898,39.3503185 Z M204.488239,33.3503185 C204.715269,33.7579638 204.967521,34.076432 205.245002,34.3057325 C205.522484,34.535033 205.812573,34.7070058 206.11528,34.8216561 C206.417987,34.9363063 206.714383,35.0127387 207.004478,35.0509554 C207.294572,35.0891722 207.55313,35.1082803 207.78016,35.1082803 L209.142335,35.1082803 L209.142335,39.3503185 L207.439617,39.3503185 C206.935105,39.3503185 206.436907,39.324841 205.945009,39.2738854 C205.45311,39.2229297 204.967525,39.0955424 204.488239,38.8917197 C204.008953,38.6878971 203.542286,38.3757983 203.088226,37.955414 C202.634166,37.5350297 202.180112,36.9554177 201.726052,36.2165605 L198.698997,31.2484076 L198.43413,31.2484076 C197.677363,31.2484076 197.040426,31.2675157 196.523302,31.3057325 C196.006178,31.3439492 195.552124,31.4140122 195.161128,31.5159236 C194.770131,31.6178349 194.404366,31.7388528 194.06382,31.8789809 C193.723275,32.019109 193.351203,32.1910818 192.947594,32.3949045 L192.947594,39.3503185 L188.974585,39.3503185 L188.974585,19.5541401 L201.612537,19.5541401 C202.520658,19.5541401 203.346783,19.7006355 204.090938,19.9936306 C204.835092,20.2866257 205.484641,20.7006343 206.039604,21.2356688 C206.594567,21.7707033 207.023395,22.4012703 207.326102,23.1273885 C207.628809,23.8535068 207.78016,24.6496772 207.78016,25.5159236 C207.78016,27.0445936 207.38917,28.2802501 206.607177,29.2229299 C205.825184,30.1656098 204.715275,30.853501 203.277417,31.2866242 L204.488239,33.3503185 Z M201.612537,27.3121019 C202.192725,27.3121019 202.703536,27.1528678 203.144983,26.8343949 C203.586431,26.515922 203.807151,26.0382197 203.807151,25.4012739 C203.807151,24.9681507 203.718863,24.6242051 203.542284,24.3694268 C203.365705,24.1146484 203.144985,23.9235675 202.880116,23.7961783 C202.615247,23.6687892 202.306239,23.5859875 201.953081,23.5477707 C201.599923,23.5095539 201.259382,23.4904459 200.93145,23.4904459 L192.947594,23.4904459 L192.947594,28.4585987 C193.704361,28.0254755 194.543099,27.7261155 195.463833,27.5605096 C196.384567,27.3949036 197.374656,27.3121019 198.43413,27.3121019 L201.612537,27.3121019 Z" id="Stockr-Copy" fill="#E7E5D3"></path>
        </g>
    </g>
</svg>
